<?xml version="1.0" standalone="no"?><!DOCTYPE svg PUBLIC "-//W3C//DTD SVG 1.1//EN" "http://www.w3.org/Graphics/SVG/1.1/DTD/svg11.dtd"><svg t="1624372742938" class="icon" viewBox="0 0 1024 1024" version="1.1" xmlns="http://www.w3.org/2000/svg" p-id="2407" xmlns:xlink="http://www.w3.org/1999/xlink" width="200" height="200"><defs><style type="text/css"></style></defs><path d="M447.741487 411.489842l165.613922 100.679004L447.741487 612.130512 447.741487 411.489842M415.765215 319.863005c-17.662265 0-31.980365 14.3181-31.980365 31.980365l0 319.803653c0 17.662265 14.3181 31.980365 31.980365 31.980365 8.28878 0 15.839757-3.15383 21.521153-8.325619 4.891404-2.775206 9.498328-6.237051 13.668301-10.407024l211.184817-127.468137c24.976858-24.976858 24.976858-65.472154 0-90.447988L450.954669 338.595648c-4.169973-4.169973-8.776897-7.631818-13.668301-10.407024C431.604972 323.016835 424.052972 319.863005 415.765215 319.863005L415.765215 319.863005z" p-id="2408" fill="#ffffff"></path><path d="M511.706311 191.938474c43.201941 0 85.077677 8.447393 124.46371 25.105794 38.075177 16.10377 72.28328 39.172161 101.674681 68.563562 29.391401 29.391401 52.458769 63.599504 68.563562 101.673657 16.659425 39.386032 25.105794 81.261769 25.105794 124.46371s-8.447393 85.077677-25.105794 124.46371c-16.10377 38.075177-39.172161 72.28328-68.563562 101.673657-29.391401 29.391401-63.599504 52.459792-101.674681 68.563562-39.386032 16.658402-81.261769 25.105794-124.46371 25.105794-43.201941 0-85.077677-8.447393-124.46371-25.105794-38.075177-16.10377-72.28328-39.172161-101.674681-68.563562-29.391401-29.391401-52.458769-63.599504-68.563562-101.673657-16.658402-39.386032-25.105794-81.261769-25.105794-124.46371s8.447393-85.077677 25.105794-124.46371c16.104793-38.075177 39.172161-72.28328 68.563562-101.673657 29.391401-29.391401 63.599504-52.459792 101.674681-68.563562C426.628634 200.384843 468.50437 191.938474 511.706311 191.938474M511.706311 127.981836c-211.94718 0-383.76336 171.817204-383.76336 383.76336s171.817204 383.76336 383.76336 383.76336 383.764384-171.817204 383.764384-383.76336S723.652468 127.981836 511.706311 127.981836L511.706311 127.981836z" p-id="2409" fill="#ffffff"></path></svg>